<svg xmlns="http://www.w3.org/2000/svg" width="227.652" height="142.01" viewBox="0 0 227.652 142.01">
  <g id="Grupo_59" data-name="Grupo 59" transform="translate(-179.6 -540.969)">
    <path id="Caminho_85" data-name="Caminho 85" d="M371.766,573.881c3.7-20.3,36.209-16.328,36.209-30.533a3.661,3.661,0,0,0-.549-2.38c4.835,2.344,8.406,6.871,6.847,9.816a4.419,4.419,0,0,0,3.542-4.073c1.188,1.3,4.181,5.948,1.27,10.321,11.526,2.469,16.78,12.244,16.09,17.122a11.225,11.225,0,0,1,7.11-2.9c7.238,0,14.273,4.089,14.273,12,0,10.814-11.224,19.2-16.26,19.2a8.278,8.278,0,0,1-.917-.077c-3.26,8.691-18.047,15.093-27.389,15.118a13.447,13.447,0,0,1-8.57,3.01,13.779,13.779,0,0,1-7.762-2.36c-7.587-1.1-23.164-3.24-25.08-15.807a3.994,3.994,0,0,1-2.089.626c-6.422,0-15.4-9.223-15.4-19.728,0-8.463,9.15-10.806,13.077-10.806A10.98,10.98,0,0,1,371.766,573.881Z" transform="translate(-121.963)" fill="#ff8e72"/>
    <path id="Caminho_86" data-name="Caminho 86" d="M453.424,627.985c2.038-2.9,5.666-4.192,9.185-4.192,8.146,0,14.032,6.964,14.032,14.734a15.574,15.574,0,0,1-2.705,8.352c8.01.114,11.3,4.323,11.3,8.658,0,10.609-17.959,18.65-22.684,18.142a11.931,11.931,0,0,1-9.02,3.709c-3.322,0-6.6-1.144-8.47-3.746-10.394-2.559-20.487-5.041-20.487-17.62,0-4.268,2.809-7.2,6.286-8.607a21.173,21.173,0,0,1-1.38-7.352c0-8.745,6.761-14.9,13.907-15.109C447.869,624.822,451.983,626.463,453.424,627.985Z" transform="translate(-172.215 -58.223)" fill="#fff"/>
    <path id="Caminho_87" data-name="Caminho 87" d="M378.479,676.176a9.17,9.17,0,0,1,4.468-1.3c4.462,0,6.779,4.618,6.779,8.495,0,2.343-1.644,6.456-5.623,6.312-2.739-.1-4.483-2.845-4.483-5.932,0-2.729,1.669-5.986,4.895-6.737a8.6,8.6,0,0,0-4.676-.995A5.9,5.9,0,0,0,378.479,676.176Z" transform="translate(-139.807 -94.136)" fill="#fff"/>
    <path id="Caminho_88" data-name="Caminho 88" d="M646.993,672.98a9.171,9.171,0,0,0-4.468-1.3c-4.462,0-6.779,4.618-6.779,8.495,0,2.343,1.644,6.456,5.623,6.312,2.738-.1,4.483-2.845,4.483-5.932,0-2.728-1.668-5.986-4.895-6.737a8.6,8.6,0,0,1,4.676-.995A5.9,5.9,0,0,1,646.993,672.98Z" transform="translate(-320.66 -91.89)" fill="#fff"/>
    <path id="Caminho_89" data-name="Caminho 89" d="M471.547,682.792a1.7,1.7,0,0,1-.876-3.162,3.2,3.2,0,0,0-1.668-.472,3.565,3.565,0,1,0,3.362,3.56c0-.044,0-.088-.006-.132A1.7,1.7,0,0,1,471.547,682.792Z" transform="translate(-201.08 -97.144)" fill="#231f20"/>
    <path id="Caminho_90" data-name="Caminho 90" d="M554.511,682.614a1.7,1.7,0,0,1-.995-3.084,3.192,3.192,0,0,0-1.489-.372,3.565,3.565,0,1,0,3.362,3.56c0-.115-.006-.228-.016-.34A1.694,1.694,0,0,1,554.511,682.614Z" transform="translate(-259.444 -97.144)" fill="#231f20"/>
    <path id="Caminho_91" data-name="Caminho 91" d="M529.348,721.91c.138.617-.069,1.189-.462,1.277s-.823-.342-.961-.959.069-1.189.462-1.277S529.209,721.293,529.348,721.91Z" transform="translate(-244.834 -126.515)" fill="#231f20"/>
    <path id="Caminho_92" data-name="Caminho 92" d="M514.74,721.957c-.286.634-.77,1.035-1.081.9s-.331-.768-.045-1.4.77-1.035,1.081-.895S515.026,721.323,514.74,721.957Z" transform="translate(-234.662 -126.225)" fill="#231f20"/>
    <path id="Caminho_93" data-name="Caminho 93" d="M183.591,822.928l.81-54.56q12.19,1.194,25.064,1.194l5.115-.043q-.214,2.985-.426,5.755-.682,7.631-.682,11.935,0,1.492.107,4.156a53.142,53.142,0,0,0,.831,6.8l4.6-26.939a81.906,81.906,0,0,1,8.738-1.492,71.79,71.79,0,0,1,7.758-.427q1.832,0,12.318.3l-1.535,20.2.427,32.864H231.374l2.046-20.2-.256-15.644-4.6,17.477-.639,18.371-22.207-.256-6.181-38.149-1.876-3.282,4.86,41.516Z" transform="translate(-2.806 -159.856)" fill="#ed6a5e"/>
    <path id="Caminho_94" data-name="Caminho 94" d="M437.532,858.286l-12.3-.623.4-5.638h-2.305l-.841,6.261-14.018-.156L413.888,820q3.956-.061,10.124-.748a89.375,89.375,0,0,1,9.127-.654,32.531,32.531,0,0,1,3.77.218l-.623,15.108Zm-11.246-14.952-.623-11.619-1.122.81-.187,10.809Z" transform="translate(-160.889 -195.168)" fill="#ed6a5e"/>
    <path id="Caminho_95" data-name="Caminho 95" d="M524.083,858.558l1-12.024-.062-8.722-1.994-.966L521.31,858.5l-9.625.031-.125-14.392.779-25.294h.841q3.084,0,9.1.405,4.548.281,6.355.281a6.462,6.462,0,0,0,1.931-.187l3.084,27.942,3.769,1.994-3.582-30.465H546.76l-.623,39.655q-3.8-.093-7.289-.094Z" transform="translate(-233.36 -195.316)" fill="#ed6a5e"/>
    <path id="Caminho_96" data-name="Caminho 96" d="M663.112,822.6l-20.929-.043.853-34.4L642.1,768.08l21.995.853-2.174,19.053.938.213,3.794-19.565L684,768.166l-2.174,13.725L675.3,799.2l-8.866,1.747,12.105,1.023,2.813,8.4,3.026,12.19H666.948l-2.088-12.489-2.515.383Z" transform="translate(-325.126 -159.654)" fill="#ed6a5e"/>
    <path id="Caminho_97" data-name="Caminho 97" d="M815.927,823.23l-13.768-.213.086-9.505a49.9,49.9,0,0,0-.512-7.928q-.767-4.6-4.391-13.81l-8.866-22.8,10.358-.128,8.738.213,2.558,11,1.364,7.843,1.321.682.043-7.417,3.581-11.339q4.944.427,7.033.427a56.579,56.579,0,0,0,11.807-1.449L822.022,804.3l-.042,18.457Z" transform="translate(-428.026 -160.159)" fill="#ed6a5e"/>
    <path id="Caminho_98" data-name="Caminho 98" d="M520.382,762.369c.221.988-.11,1.9-.739,2.043s-1.317-.547-1.538-1.535.11-1.9.739-2.043S520.162,761.381,520.382,762.369Z" transform="translate(-237.914 -154.547)" fill="#231f20"/>
    <text id="INTEGRAÇÃO_OFICINAS_AUTO_PEÇAS" data-name="INTEGRAÇÃO OFICINAS/AUTO PEÇAS" transform="translate(179.6 679.979)" fill="#494949" font-size="12" font-family="Roboto-Light, Roboto" font-weight="300"><tspan x="0" y="0">INTEGRAÇÃO OFICINAS/AUTO PEÇAS</tspan></text>
  </g>
</svg>
