<svg xmlns="http://www.w3.org/2000/svg" width="348.333" height="267.803" viewBox="0 0 348.333 267.803">
  <g id="Grupo_60" data-name="Grupo 60" transform="translate(-353.095 -540.969)">
    <path id="Caminho_99" data-name="Caminho 99" d="M415.955,651.777c12.442-68.352,121.908-54.972,121.908-102.8,0-5.851-.775-5.325-1.85-8.012,16.277,7.891,28.3,23.134,23.052,33.047,9.367-2.561,10.988-8.5,11.925-13.713,4,4.391,14.078,20.024,4.275,34.747,38.8,8.314,56.494,41.224,54.172,57.647,6.846-5.831,15.3-9.75,23.937-9.75,24.368,0,48.054,13.767,48.054,40.417,0,36.408-37.79,64.635-54.745,64.635a27.844,27.844,0,0,1-3.089-.26c-10.977,29.262-60.758,50.813-92.211,50.9a45.272,45.272,0,0,1-28.853,10.134,46.389,46.389,0,0,1-26.133-7.946c-25.543-3.694-77.986-10.909-84.437-53.218a13.447,13.447,0,0,1-7.033,2.106c-21.622,0-51.832-31.05-51.832-66.418,0-28.494,30.8-36.38,44.026-36.38A36.967,36.967,0,0,1,415.955,651.777Z" fill="#ff8e72"/>
    <path id="Caminho_100" data-name="Caminho 100" d="M521.692,637.905c6.862-9.762,19.077-14.112,30.922-14.112,27.424,0,47.242,23.447,47.242,49.607,0,10.882-4.361,20.927-9.108,28.118,26.967.383,38.061,14.555,38.061,29.149,0,35.718-60.463,62.789-76.371,61.08-6.559,7.278-17.057,12.486-30.368,12.486-11.183,0-22.228-3.85-28.518-12.611-34.995-8.617-68.973-16.971-68.973-59.322,0-14.369,9.456-24.249,21.162-28.977a71.282,71.282,0,0,1-4.646-24.754c0-29.442,22.764-50.158,46.82-50.868C502.989,627.257,516.84,632.783,521.692,637.905Z" fill="#fff"/>
    <path id="Caminho_101" data-name="Caminho 101" d="M378.479,679.242a30.871,30.871,0,0,1,15.042-4.362c15.023,0,22.822,15.548,22.822,28.6,0,7.887-5.534,21.736-18.931,21.25-9.22-.335-15.093-9.577-15.093-19.972,0-9.187,5.618-20.153,16.48-22.683-4.3-2.883-10.374-3.349-15.743-3.349A19.854,19.854,0,0,0,378.479,679.242Z" fill="#fff"/>
    <path id="Caminho_102" data-name="Caminho 102" d="M673.611,676.046a30.875,30.875,0,0,0-15.043-4.362c-15.022,0-22.822,15.548-22.822,28.6,0,7.887,5.534,21.737,18.932,21.25,9.219-.335,15.092-9.577,15.092-19.972,0-9.186-5.617-20.153-16.48-22.683,4.3-2.882,10.375-3.349,15.743-3.349A19.859,19.859,0,0,1,673.611,676.046Z" fill="#fff"/>
    <path id="Caminho_103" data-name="Caminho 103" d="M485.524,691.391a5.73,5.73,0,0,1-2.949-10.645,10.776,10.776,0,0,0-5.615-1.588c-6.251,0-11.319,5.365-11.319,11.984s5.068,11.985,11.319,11.985,11.319-5.366,11.319-11.985c0-.149-.016-.3-.021-.443A5.716,5.716,0,0,1,485.524,691.391Z" fill="#231f20"/>
    <path id="Caminho_104" data-name="Caminho 104" d="M568.347,690.792A5.73,5.73,0,0,1,565,680.41a10.747,10.747,0,0,0-5.014-1.252c-6.251,0-11.318,5.365-11.318,11.984s5.067,11.985,11.318,11.985,11.319-5.366,11.319-11.985c0-.386-.021-.767-.054-1.144A5.705,5.705,0,0,1,568.347,690.792Z" fill="#231f20"/>
    <path id="Caminho_105" data-name="Caminho 105" d="M532.816,724.207c.464,2.079-.232,4-1.554,4.3s-2.772-1.15-3.236-3.229.231-4,1.554-4.3S532.351,722.129,532.816,724.207Z" fill="#231f20"/>
    <path id="Caminho_106" data-name="Caminho 106" d="M517.882,725.342c-.963,2.136-2.592,3.485-3.638,3.014s-1.115-2.586-.152-4.722,2.592-3.485,3.638-3.013S518.845,723.206,517.882,725.342Z" fill="#231f20"/>
    <path id="Caminho_107" data-name="Caminho 107" d="M525.932,766.044c.743,3.326-.37,6.406-2.487,6.879s-4.434-1.841-5.177-5.167.37-6.406,2.487-6.879S525.189,762.718,525.932,766.044Z" fill="#231f20"/>
  </g>
</svg>
